<svg width="18" height="18" viewBox="0 0 18 18" fill="none" xmlns="http://www.w3.org/2000/svg">
<path fill-rule="evenodd" clip-rule="evenodd" d="M14.1709 4.80158L11.9367 0.33347C11.8626 0.185211 11.7469 0.0848982 11.5898 0.0325336C11.4326 -0.0198309 11.2799 -0.00898299 11.1318 0.0650783C11.0606 0.100705 10.9989 0.148516 10.9468 0.20865C10.8946 0.268783 10.856 0.336553 10.8309 0.411954C10.8057 0.487489 10.7959 0.564899 10.8015 0.644318C10.8072 0.723604 10.8278 0.798871 10.8634 0.870121L12.8292 4.80166H5.17082L7.13663 0.870121C7.21069 0.721862 7.22154 0.569185 7.16917 0.411961C7.11681 0.254863 7.01649 0.139149 6.86823 0.065092C6.79712 0.0294657 6.72185 0.0088429 6.64256 0.00321661C6.56315 -0.0024083 6.48574 0.00736822 6.4102 0.032547C6.3348 0.0577254 6.26703 0.0962979 6.2069 0.148529C6.14676 0.200626 6.09895 0.262234 6.06333 0.333349L3.82913 4.80181H1.79945C0.599863 4.80181 0 5.40167 0 6.60126V6.60233C0 7.09934 0.175714 7.52335 0.527006 7.87477C0.878434 8.22607 1.30245 8.40178 1.79945 8.40178H16.2005C16.6975 8.40178 17.1215 8.22607 17.4729 7.87477C17.8242 7.52335 17.9999 7.09934 17.9999 6.60233V6.60126C17.9999 5.40167 17.4001 4.80181 16.2005 4.80181L14.1709 4.80158ZM1.79923 9.60158C1.40481 9.60158 1.05619 9.45386 0.753382 9.15854L1.47177 15.3481C1.67708 17.1172 2.6703 18.0017 4.45113 18.0017H13.5485C15.3293 18.0017 16.3226 17.1172 16.5279 15.3481L17.2463 9.15854C16.9434 9.45386 16.5948 9.60158 16.2003 9.60158H1.79923ZM5.99992 11.4016V16.2016C5.99992 16.3673 5.94139 16.5087 5.8242 16.6259C5.70702 16.7431 5.56559 16.8016 5.39992 16.8016C5.23425 16.8016 5.09282 16.7431 4.97563 16.6259C4.85845 16.5087 4.79992 16.3673 4.79992 16.2016V11.4016C4.79992 11.2359 4.85845 11.0945 4.97563 10.9773C5.09282 10.8601 5.23425 10.8016 5.39992 10.8016C5.56559 10.8016 5.70702 10.8601 5.8242 10.9773C5.94139 11.0945 5.99992 11.2359 5.99992 11.4016ZM9.4242 10.9773C9.54139 11.0945 9.59992 11.2359 9.59992 11.4016V16.2016C9.59992 16.3673 9.54139 16.5087 9.4242 16.6259C9.30702 16.7431 9.16559 16.8016 8.99992 16.8016C8.83425 16.8016 8.69282 16.7431 8.57563 16.6259C8.45844 16.5087 8.39992 16.3673 8.39992 16.2016V11.4016C8.39992 11.2359 8.45844 11.0945 8.57563 10.9773C8.69282 10.8601 8.83425 10.8016 8.99992 10.8016C9.16559 10.8016 9.30702 10.8601 9.4242 10.9773ZM13.1997 11.4016V16.2016C13.1997 16.3673 13.1412 16.5087 13.024 16.6259C12.9068 16.7431 12.7654 16.8016 12.5997 16.8016C12.4341 16.8016 12.2927 16.7431 12.1755 16.6259C12.0583 16.5087 11.9997 16.3673 11.9997 16.2016V11.4016C11.9997 11.2359 12.0583 11.0945 12.1755 10.9773C12.2927 10.8601 12.4341 10.8016 12.5997 10.8016C12.7654 10.8016 12.9068 10.8601 13.024 10.9773C13.1412 11.0945 13.1997 11.2359 13.1997 11.4016Z" fill="black"/>
</svg>
