<svg width="255" height="42" viewBox="0 0 255 42" fill="none" xmlns="http://www.w3.org/2000/svg">
<g clip-path="url(#clip0_64_270)">
<path fill-rule="evenodd" clip-rule="evenodd" d="M136.158 0H138.2V41.9866H136.158V0Z" fill="#00C462"/>
<path d="M165.065 8.8275V12.2499H172.709V14.1855H165.113V35.7715H162.819V14.1855H158.422V12.2499H162.819V8.64666C162.774 7.78293 162.905 6.91902 163.204 6.10581C163.503 5.2926 163.965 4.54653 164.562 3.91153C165.719 2.7417 167.352 2.15679 169.462 2.15679C170.355 2.1539 171.243 2.28259 172.096 2.53855C172.872 2.75781 173.586 3.15227 174.179 3.69052L173.26 5.39837C172.245 4.49885 170.916 4.01909 169.551 4.05887C166.565 4.0812 165.07 5.67074 165.065 8.8275Z" fill="#00C462"/>
<path d="M180.203 34.4186C178.401 33.4158 176.917 31.9414 175.915 30.159C174.896 28.2647 174.363 26.154 174.363 24.0107C174.363 21.8674 174.896 19.7566 175.915 17.8624C176.917 16.0799 178.401 14.6055 180.203 13.6028C182.081 12.5915 184.188 12.0615 186.329 12.0615C188.47 12.0615 190.577 12.5915 192.455 13.6028C194.247 14.6133 195.719 16.0922 196.709 17.8758C197.732 19.7687 198.267 21.88 198.267 24.0241C198.267 26.1681 197.732 28.2794 196.709 30.1724C195.71 31.9545 194.228 33.429 192.428 34.432C190.549 35.4432 188.443 35.9732 186.302 35.9732C184.161 35.9732 182.054 35.4432 180.176 34.432L180.203 34.4186ZM191.236 32.6638C192.675 31.818 193.851 30.6023 194.64 29.1476C195.468 27.5578 195.899 25.7971 195.899 24.0107C195.899 22.2243 195.468 20.4635 194.64 18.8737C193.851 17.419 192.675 16.2034 191.236 15.3575C189.731 14.5317 188.036 14.0982 186.312 14.0982C184.588 14.0982 182.893 14.5317 181.387 15.3575C179.949 16.2034 178.773 17.419 177.984 18.8737C177.156 20.4635 176.724 22.2243 176.724 24.0107C176.724 25.7971 177.156 27.5578 177.984 29.1476C178.773 30.6023 179.949 31.818 181.387 32.6638C182.893 33.4896 184.588 33.9231 186.312 33.9231C188.036 33.9231 189.731 33.4896 191.236 32.6638Z" fill="#00C462"/>
<path d="M208.593 34.4186C206.791 33.4176 205.309 31.9426 204.312 30.159C203.288 28.266 202.753 26.1547 202.753 24.0107C202.753 21.8666 203.288 19.7554 204.312 17.8624C205.309 16.0787 206.791 14.6037 208.593 13.6028C210.471 12.5915 212.578 12.0615 214.719 12.0615C216.86 12.0615 218.966 12.5915 220.845 13.6028C222.646 14.6037 224.129 16.0787 225.126 17.8624C226.149 19.7554 226.684 21.8666 226.684 24.0107C226.684 26.1547 226.149 28.266 225.126 30.159C224.118 31.948 222.62 33.4236 220.804 34.4186C218.926 35.4298 216.819 35.9598 214.678 35.9598C212.537 35.9598 210.43 35.4298 208.552 34.4186H208.593ZM219.626 32.6638C221.075 31.8201 222.263 30.6046 223.064 29.1476C223.892 27.5578 224.323 25.7971 224.323 24.0107C224.323 22.2243 223.892 20.4635 223.064 18.8737C222.263 17.4167 221.075 16.2013 219.626 15.3575C218.122 14.5317 216.428 14.0981 214.705 14.0981C212.983 14.0981 211.289 14.5317 209.784 15.3575C208.334 16.1994 207.145 17.4153 206.347 18.8737C205.519 20.4635 205.087 22.2243 205.087 24.0107C205.087 25.7971 205.519 27.5578 206.347 29.1476C207.145 30.6061 208.334 31.8219 209.784 32.6638C211.289 33.4897 212.983 33.9232 214.705 33.9232C216.428 33.9232 218.122 33.4897 219.626 32.6638Z" fill="#00C462"/>
<path d="M255 2.3374V35.7713H252.795V30.2258C251.913 31.9907 250.526 33.4641 248.806 34.4653C247.042 35.471 245.032 35.985 242.993 35.9521C240.875 35.9826 238.788 35.4529 236.949 34.4184C235.167 33.4198 233.702 31.9546 232.715 30.1856C231.705 28.2755 231.177 26.1539 231.177 24.0005C231.177 21.8471 231.705 19.7254 232.715 17.8153C233.695 16.04 235.162 14.5711 236.949 13.5758C238.794 12.5591 240.879 12.0393 242.993 12.0689C245.01 12.0377 246.997 12.552 248.738 13.5557C250.435 14.5496 251.822 15.9839 252.747 17.7015V2.3374H255ZM248.03 32.6637C249.466 31.8151 250.642 30.6002 251.433 29.1475C252.261 27.5576 252.693 25.7969 252.693 24.0105C252.693 22.2241 252.261 20.4634 251.433 18.8735C250.642 17.4208 249.466 16.2059 248.03 15.3573C246.526 14.5315 244.832 14.098 243.109 14.098C241.386 14.098 239.692 14.5315 238.188 15.3573C236.752 16.2059 235.576 17.4208 234.785 18.8735C233.957 20.4634 233.525 22.2241 233.525 24.0105C233.525 25.7969 233.957 27.5576 234.785 29.1475C235.576 30.6002 236.752 31.8151 238.188 32.6637C239.692 33.4895 241.386 33.923 243.109 33.923C244.832 33.923 246.526 33.4895 248.03 32.6637Z" fill="#00C462"/>
<path d="M33.2976 4.226V35.7712H30.044V10.5083L17.452 31.7326H15.8456L3.25352 10.6489V35.7444H0V4.19922H2.79749L16.7168 27.5869L30.5001 4.19922L33.2976 4.226Z" fill="#00C462"/>
<path d="M43.7319 4.22607H47.1352V35.7713H43.7319V4.22607Z" fill="#00C462"/>
<path d="M79.4526 35.7713L72.122 25.6313C71.2722 25.7242 70.4177 25.769 69.5627 25.7652H60.9525V35.7713H57.5492V4.22607H69.5627C73.6466 4.22607 76.8525 5.18828 79.1804 7.11269C81.5082 9.03711 82.6585 11.6804 82.6313 15.0425C82.7048 17.271 82.0381 19.4624 80.7322 21.2846C79.3638 23.0506 77.4549 24.3373 75.287 24.9548L83.1213 35.7713H79.4526ZM76.73 20.856C77.5742 20.1415 78.2404 19.2457 78.6771 18.2378C79.1137 17.2298 79.3092 16.1366 79.2484 15.0425C79.2484 12.4886 78.4089 10.5284 76.73 9.16214C75.0511 7.79585 72.6234 7.11269 69.447 7.11269H60.9525V22.9255H69.4674C72.6438 22.9255 75.0715 22.2356 76.7504 20.856H76.73Z" fill="#00C462"/>
<path d="M110.776 27.3458H92.916L89.0703 35.7713H85.5446L100.199 4.22607H103.541L118.195 35.7713H114.622L110.776 27.3458ZM109.538 24.6668L101.846 7.72217L94.1548 24.6668H109.538Z" fill="#00C462"/>
<path d="M218.429 10.9168C217.475 10.9204 216.527 10.7688 215.624 10.468L215.161 10.314V9.83848C215.112 8.65646 215.371 7.48169 215.915 6.42639C216.458 5.37109 217.267 4.47053 218.265 3.81073C220.62 2.14975 224.949 2.25022 227.046 2.95345L227.808 3.21466L227.046 4.55416C225.936 6.5634 225.133 8.01006 223.091 9.45002C221.732 10.4097 220.101 10.923 218.429 10.9168ZM216.536 9.34286C217.509 9.59966 218.525 9.64886 219.519 9.48714C220.512 9.32542 221.458 8.95652 222.295 8.40522C224.064 7.15278 224.731 5.96733 225.814 4.01835C223.819 3.60981 220.729 3.72366 219.055 4.90912C218.306 5.3965 217.686 6.05339 217.248 6.82478C216.81 7.59617 216.566 8.45963 216.536 9.34286Z" fill="#00C462"/>
<path d="M215.59 9.53745C217.462 7.93005 219.511 6.31595 221.941 5.67969C219.674 6.62403 217.938 8.45246 216.359 10.2474L215.59 9.53745Z" fill="#00C462"/>
<path d="M214.876 9.26942H214.392C213.697 9.21116 213.026 8.99134 212.435 8.62805C211.843 8.26476 211.348 7.76839 210.989 7.1798C210.311 6.16128 209.914 4.98624 209.839 3.77078L209.737 2.98047L210.547 3.02066C211.751 3.08094 213.875 3.86454 214.726 5.18395C215.093 5.71629 215.317 6.33211 215.375 6.97316C215.434 7.61422 215.325 8.25932 215.059 8.84748L214.876 9.26942ZM211.323 4.48071C211.455 5.17683 211.733 5.83825 212.139 6.42298C212.554 7.08696 213.2 7.57976 213.957 7.80937C214.038 7.47653 214.046 7.13049 213.98 6.79438C213.914 6.45827 213.776 6.13984 213.575 5.86039C212.992 5.17732 212.203 4.69421 211.323 4.48071Z" fill="#00C462"/>
<path d="M213.78 8.76711C213.548 7.59096 213.042 6.48368 212.303 5.53223C213.335 6.28789 214.178 7.26616 214.767 8.39205L213.78 8.76711Z" fill="#00C462"/>
</g>
<defs>
<clipPath id="clip0_64_270">
<rect width="255" height="42" fill="white"/>
</clipPath>
</defs>
</svg>
