<svg width="24" height="24" viewBox="0 0 24 24" fill="none" xmlns="http://www.w3.org/2000/svg">
<g clip-path="url(#clip0_61_212)">
<path d="M14.8501 23.25C14.8501 23.0511 14.9291 22.8603 15.0698 22.7197C15.2104 22.579 15.4012 22.5 15.6001 22.5L19.3501 22.5C19.7479 22.5 20.1295 22.342 20.4108 22.0607C20.6921 21.7794 20.8501 21.3978 20.8501 21L20.8501 3C20.8501 2.60217 20.6921 2.22064 20.4108 1.93934C20.1295 1.65804 19.7479 1.5 19.3501 1.5L15.6001 1.5C15.4012 1.5 15.2104 1.42098 15.0698 1.28033C14.9291 1.13968 14.8501 0.948912 14.8501 0.75C14.8501 0.551088 14.9291 0.360321 15.0698 0.219669C15.2104 0.0790176 15.4012 -2.40888e-08 15.6001 -3.27835e-08L19.3501 -1.96701e-07C20.1457 -2.3148e-07 20.9088 0.31607 21.4714 0.878681C22.034 1.44129 22.3501 2.20435 22.3501 3L22.3501 21C22.3501 21.7956 22.034 22.5587 21.4714 23.1213C20.9088 23.6839 20.1457 24 19.3501 24L15.6001 24C15.4012 24 15.2104 23.921 15.0698 23.7803C14.9291 23.6397 14.8501 23.4489 14.8501 23.25Z" fill="#555555"/>
<path d="M17.7799 12.531C17.8497 12.4614 17.9052 12.3786 17.943 12.2875C17.9808 12.1964 18.0002 12.0987 18.0002 12C18.0002 11.9014 17.9808 11.8037 17.943 11.7126C17.9052 11.6215 17.8497 11.5387 17.7799 11.469L13.2799 6.96903C13.1391 6.8282 12.9481 6.74908 12.7489 6.74908C12.5497 6.74908 12.3587 6.8282 12.2179 6.96903C12.0771 7.10986 11.998 7.30087 11.998 7.50003C11.998 7.69919 12.0771 7.8902 12.2179 8.03103L15.4384 11.25L2.2489 11.25C2.04999 11.25 1.85923 11.329 1.71857 11.4697C1.57792 11.6104 1.4989 11.8011 1.4989 12C1.4989 12.1989 1.57792 12.3897 1.71857 12.5304C1.85923 12.671 2.04999 12.75 2.2489 12.75L15.4384 12.75L12.2179 15.969C12.1482 16.0388 12.0929 16.1215 12.0551 16.2127C12.0174 16.3038 11.998 16.4014 11.998 16.5C11.998 16.5986 12.0174 16.6963 12.0551 16.7874C12.0929 16.8785 12.1482 16.9613 12.2179 17.031C12.2876 17.1008 12.3704 17.1561 12.4615 17.1938C12.5526 17.2316 12.6503 17.251 12.7489 17.251C12.8475 17.251 12.9452 17.2316 13.0363 17.1938C13.1274 17.1561 13.2102 17.1008 13.2799 17.031L17.7799 12.531Z" fill="#555555"/>
</g>
<defs>
<clipPath id="clip0_61_212">
<rect width="24" height="24" fill="white" transform="translate(0 24) rotate(-90)"/>
</clipPath>
</defs>
</svg>
