<svg xmlns="http://www.w3.org/2000/svg" fill="none" viewBox="0 0 168.42 43">
<path d="M55.6034 10.707V14.1479H63.2014V16.094H55.6508V37.7972H53.3707V16.094H49V14.1479H53.3707V10.5251C53.3257 9.65672 53.4558 8.78812 53.7533 7.9705C54.0508 7.15288 54.5096 6.40276 55.1027 5.76431C56.2529 4.58813 57.8767 4.00005 59.9741 4.00005C60.8613 3.99715 61.7439 4.12653 62.5925 4.38388C63.3638 4.60433 64.0727 5.00093 64.6628 5.5421L63.7494 7.25922C62.7402 6.35482 61.4195 5.87245 60.0621 5.91245C57.0942 5.9349 55.6079 7.53307 55.6034 10.707Z" fill="#00C462"/>
<path d="M70.6505 36.437C68.8594 35.4288 67.384 33.9463 66.388 32.1543C65.3749 30.2498 64.8453 28.1275 64.8453 25.9726C64.8453 23.8177 65.3749 21.6954 66.388 19.7909C67.384 17.9988 68.8594 16.5164 70.6505 15.5082C72.5175 14.4915 74.6115 13.9586 76.7397 13.9586C78.8679 13.9586 80.9619 14.4915 82.8289 15.5082C84.61 16.5242 86.0736 18.0112 87.0575 19.8044C88.0746 21.7077 88.6065 23.8304 88.6065 25.9861C88.6065 28.1418 88.0746 30.2645 87.0575 32.1677C86.0642 33.9595 84.5911 35.4421 82.8018 36.4505C80.9348 37.4672 78.8408 38 76.7126 38C74.5844 38 72.4904 37.4672 70.6234 36.4505L70.6505 36.437ZM81.6178 34.6727C83.0474 33.8223 84.2169 32.6 85.0007 31.1374C85.8236 29.539 86.2528 27.7687 86.2528 25.9726C86.2528 24.1765 85.8236 22.4062 85.0007 20.8078C84.2169 19.3452 83.0474 18.1229 81.6178 17.2725C80.1212 16.4422 78.4362 16.0064 76.7228 16.0064C75.0094 16.0064 73.3243 16.4422 71.8277 17.2725C70.3982 18.1229 69.2286 19.3452 68.4448 20.8078C67.6219 22.4062 67.1927 24.1765 67.1927 25.9726C67.1927 27.7687 67.6219 29.539 68.4448 31.1374C69.2286 32.6 70.3982 33.8223 71.8277 34.6727C73.3243 35.503 75.0094 35.9388 76.7228 35.9388C78.4362 35.9388 80.1212 35.503 81.6178 34.6727Z" fill="#00C462"/>
<path d="M98.8708 36.437C97.08 35.4306 95.6064 33.9476 94.6151 32.1543C93.598 30.251 93.0662 28.1283 93.0662 25.9726C93.0662 23.8169 93.598 21.6942 94.6151 19.7909C95.6064 17.9976 97.08 16.5146 98.8708 15.5082C100.738 14.4915 102.832 13.9586 104.96 13.9586C107.088 13.9586 109.182 14.4915 111.049 15.5082C112.84 16.5146 114.314 17.9976 115.305 19.7909C116.322 21.6942 116.854 23.8169 116.854 25.9726C116.854 28.1283 116.322 30.251 115.305 32.1543C114.303 33.953 112.814 35.4366 111.009 36.437C109.142 37.4537 107.048 37.9866 104.919 37.9866C102.791 37.9866 100.697 37.4537 98.8302 36.437H98.8708ZM109.838 34.6727C111.278 33.8244 112.459 32.6024 113.255 31.1374C114.078 29.539 114.507 27.7687 114.507 25.9726C114.507 24.1765 114.078 22.4062 113.255 20.8078C112.459 19.3428 111.278 18.1208 109.838 17.2725C108.343 16.4422 106.659 16.0063 104.946 16.0063C103.234 16.0063 101.55 16.4422 100.055 17.2725C98.6134 18.1189 97.432 19.3414 96.6381 20.8078C95.8152 22.4062 95.386 24.1765 95.386 25.9726C95.386 27.7687 95.8152 29.539 96.6381 31.1374C97.432 32.6038 98.6134 33.8262 100.055 34.6727C101.55 35.503 103.234 35.9389 104.946 35.9389C106.659 35.9389 108.343 35.503 109.838 34.6727Z" fill="#00C462"/>
<path d="M145 4.18188V37.7972H142.808V32.2216C141.931 33.9961 140.553 35.4775 138.843 36.4841C137.089 37.4952 135.092 38.012 133.065 37.979C130.96 38.0096 128.885 37.4771 127.057 36.437C125.286 35.433 123.829 33.9598 122.849 32.1812C121.844 30.2607 121.32 28.1276 121.32 25.9625C121.32 23.7974 121.844 21.6642 122.849 19.7438C123.823 17.9588 125.281 16.4819 127.057 15.4813C128.891 14.4591 130.963 13.9364 133.065 13.9661C135.07 13.9348 137.045 14.4519 138.775 15.4611C140.463 16.4604 141.841 17.9024 142.761 19.6293V4.18188H145ZM138.072 34.6727C139.499 33.8196 140.668 32.598 141.455 31.1374C142.278 29.539 142.707 27.7687 142.707 25.9726C142.707 24.1765 142.278 22.4062 141.455 20.8077C140.668 19.3472 139.499 18.1256 138.072 17.2725C136.576 16.4421 134.893 16.0063 133.18 16.0063C131.468 16.0063 129.784 16.4421 128.288 17.2725C126.861 18.1256 125.692 19.3472 124.906 20.8077C124.083 22.4062 123.653 24.1765 123.653 25.9726C123.653 27.7687 124.083 29.539 124.906 31.1374C125.692 32.598 126.861 33.8196 128.288 34.6727C129.784 35.503 131.468 35.9389 133.18 35.9389C134.893 35.9389 136.576 35.503 138.072 34.6727Z" fill="#00C462"/>
<path d="M108.647 12.8079C107.7 12.8116 106.758 12.6591 105.86 12.3568L105.4 12.2019V11.7238C105.35 10.5354 105.608 9.35421 106.148 8.29318C106.689 7.23216 107.493 6.3267 108.485 5.66333C110.826 3.99334 115.129 4.09435 117.213 4.8014L117.971 5.06402L117.213 6.41079C116.11 8.43094 115.312 9.88545 113.282 11.3332C111.932 12.2981 110.31 12.8142 108.647 12.8079ZM106.766 11.2255C107.733 11.4837 108.744 11.5331 109.731 11.3705C110.718 11.2079 111.659 10.837 112.49 10.2827C114.249 9.02352 114.912 7.83163 115.988 5.87208C114.006 5.46132 110.934 5.57579 109.27 6.76768C108.525 7.25771 107.909 7.91815 107.474 8.69373C107.038 9.46931 106.796 10.3375 106.766 11.2255Z" fill="#00C462"/>
<path d="M105.826 11.4208C107.687 9.80469 109.723 8.18183 112.139 7.54211C109.886 8.49159 108.16 10.3299 106.591 12.1346L105.826 11.4208Z" fill="#00C462"/>
<path d="M105.116 11.1514H104.635C103.944 11.0929 103.278 10.8719 102.689 10.5066C102.101 10.1413 101.609 9.64227 101.252 9.05049C100.578 8.02644 100.184 6.84502 100.109 5.62297L100.007 4.82837L100.812 4.86878C102.01 4.92939 104.121 5.71724 104.967 7.04381C105.332 7.57904 105.554 8.19819 105.612 8.84273C105.67 9.48726 105.562 10.1359 105.298 10.7272L105.116 11.1514ZM101.584 6.33675C101.716 7.03665 101.992 7.70165 102.396 8.28956C102.808 8.95714 103.45 9.45262 104.202 9.68347C104.283 9.34882 104.291 9.00091 104.225 8.66298C104.16 8.32504 104.023 8.00489 103.823 7.72392C103.243 7.03714 102.459 6.55141 101.584 6.33675Z" fill="#00C462"/>
<path d="M104.026 10.6464C103.796 9.46383 103.294 8.35054 102.558 7.39392C103.584 8.15368 104.422 9.13727 105.007 10.2693L104.026 10.6464Z" fill="#00C462"/>
<path d="M158.948 38.184C157.016 38.184 155.176 37.8926 153.428 37.31C151.68 36.7273 150.315 35.9913 149.334 35.102L150.392 33.262C151.373 34.09 152.631 34.78 154.164 35.332C155.728 35.884 157.353 36.16 159.04 36.16C161.463 36.16 163.241 35.7613 164.376 34.964C165.541 34.1666 166.124 33.0626 166.124 31.652C166.124 30.64 165.802 29.8426 165.158 29.26C164.545 28.6773 163.778 28.248 162.858 27.972C161.938 27.696 160.665 27.4046 159.04 27.098C157.139 26.7606 155.605 26.3926 154.44 25.994C153.275 25.5953 152.278 24.9513 151.45 24.062C150.622 23.1726 150.208 21.946 150.208 20.382C150.208 18.4806 150.99 16.9166 152.554 15.69C154.149 14.4326 156.403 13.804 159.316 13.804C160.849 13.804 162.367 14.0186 163.87 14.448C165.373 14.8773 166.599 15.4446 167.55 16.15L166.492 17.99C165.511 17.2846 164.391 16.748 163.134 16.38C161.877 16.012 160.589 15.828 159.27 15.828C157.031 15.828 155.345 16.242 154.21 17.07C153.075 17.898 152.508 18.9866 152.508 20.336C152.508 21.4093 152.83 22.2526 153.474 22.866C154.118 23.4486 154.9 23.8933 155.82 24.2C156.771 24.476 158.089 24.7826 159.776 25.12C161.647 25.4573 163.149 25.8253 164.284 26.224C165.449 26.592 166.431 27.2053 167.228 28.064C168.025 28.9226 168.424 30.1033 168.424 31.606C168.424 33.5993 167.596 35.194 165.94 36.39C164.284 37.586 161.953 38.184 158.948 38.184Z" fill="#00C462"/>
<path fill-rule="evenodd" clip-rule="evenodd" d="M30.4107 22.4149L27.2013 30.4347H33.6202L30.4107 22.4149Z" fill="#00C462"/>
<path fill-rule="evenodd" clip-rule="evenodd" d="M29.9915 19.3487H30.8267H31.1422L31.2566 19.6348L35.5745 30.4346H39.9983V0H31.3146V15.633V16.0789H30.8527H29.9651H29.5023V15.633V0H0V20.5382H4.45806V3.49619V3.05007H4.91981H5.1552H5.39013L5.52927 3.2366L13.8976 14.4675L22.2421 3.2366L22.3805 3.05007H22.6178H22.8265H23.2892V3.49619V24.2734V24.7199H22.8265H21.9133H21.4508V24.2734V7.37743L14.3796 16.901L14.2415 17.087H14.0039H13.7952H13.5603L13.4208 16.901L6.29637 7.36832V20.5382H11.4454C13.2658 20.5382 14.8966 21.1375 16.0622 22.1884C17.1946 23.2094 17.8853 24.649 17.8853 26.3731C17.8853 27.7086 17.4807 28.8774 16.7728 29.8118C16.1458 30.6375 15.2838 31.2756 14.256 31.6767L18.1896 38.3937L18.5783 39.0574H17.7884H16.7444H16.477L16.3432 38.829L12.4241 32.1401C12.3215 32.1522 12.2173 32.1636 12.112 32.173C11.8834 32.1942 11.658 32.2083 11.4454 32.2083H6.26927V38.6112V39.0574H5.80755H4.91981H4.45701V38.6112V30.8804V30.4346H4.91981H11.4454C12.7522 30.4346 13.9264 30.0235 14.7527 29.2808C15.5219 28.589 15.9952 27.5979 15.9952 26.3731C15.9952 25.1292 15.5344 24.1333 14.7686 23.4445C13.9544 22.7119 12.785 22.3116 11.4454 22.3116H5.83357H4.91981H0V43H20.2176L22.5136 37.2614L29.5612 19.6348L29.6752 19.3487H29.9915Z" fill="#00C462"/>
<path fill-rule="evenodd" clip-rule="evenodd" d="M26.5012 32.1825L24.3407 37.5818L22.1743 43H39.9999V32.1825H39.0997H35.6029H34.6353H29.9636H26.5012Z" fill="#00C462"/>
</svg>