<svg width="24" height="24" viewBox="0 0 24 24" fill="none" xmlns="http://www.w3.org/2000/svg">
<path d="M19.8947 5H4.10526C3.54691 5 3.01143 5.2218 2.61662 5.61662C2.2218 6.01143 2 6.54691 2 7.10526L2 16.6842C2 17.2426 2.2218 17.778 2.61662 18.1729C3.01143 18.5677 3.54691 18.7895 4.10526 18.7895H19.8947C20.4531 18.7895 20.9886 18.5677 21.3834 18.1729C21.7782 17.778 22 17.2426 22 16.6842V7.10526C22 6.54691 21.7782 6.01143 21.3834 5.61662C20.9886 5.2218 20.4531 5 19.8947 5V5ZM20.0316 6.23158L19.8211 6.42105L12.5263 12.9684C12.3922 13.1038 12.2115 13.1829 12.0211 13.1895C11.9195 13.1924 11.8185 13.1742 11.7243 13.1362C11.6301 13.0981 11.5448 13.041 11.4737 12.9684L3.93684 6.23158H20.0316ZM3.18947 16.9053V7.25263L3.36842 7.41053L8.44211 11.8947L8.31579 11.9789L3.18947 16.9053ZM4.32632 17.5158L9.36842 12.7263L10.6842 13.8947C11.052 14.2146 11.5231 14.3908 12.0105 14.3908C12.498 14.3908 12.969 14.2146 13.3368 13.8947L14.6316 12.7158L19.6 17.5158H4.32632ZM20.7263 16.8947L15.5789 11.8947L15.6842 11.8105L20.7895 7.25263L20.7263 16.8947Z" fill="white"/>
</svg>
