<svg width="24" height="24" viewBox="0 0 24 24" fill="none" xmlns="http://www.w3.org/2000/svg">
<path d="M21.2533 15.863C20.3691 14.9366 19.4533 14.0103 18.5164 13.1261C18.1776 12.8217 17.7565 12.6239 17.3058 12.5576C16.8464 12.4814 16.3748 12.5399 15.9479 12.726C15.4879 12.9293 15.0783 13.2312 14.7479 13.6103L14.0215 14.3577C12.2406 13.2697 10.7491 11.7673 9.67403 9.9786L9.92667 9.73648C10.253 9.41016 10.5793 9.08383 10.8635 8.74698C11.2831 8.29684 11.5164 7.70438 11.5164 7.08904C11.5164 6.47369 11.2831 5.88123 10.8635 5.43109C9.96878 4.46264 9.11612 3.59946 8.32662 2.80996C8.09793 2.55928 7.8203 2.3581 7.51086 2.21884C7.20142 2.07958 6.86673 2.00519 6.52743 2.00026C6.18814 1.99533 5.85143 2.05996 5.53807 2.19017C5.22471 2.32038 4.94135 2.5134 4.70547 2.75733C4.25282 3.14682 3.83176 3.58893 3.43174 3.99947L3.06331 4.37843C2.6951 4.76656 2.40871 5.22478 2.22118 5.72584C2.04263 6.22832 1.97092 6.76253 2.01065 7.29431C2.05578 8.26762 2.26948 9.22573 2.64225 10.126C3.57714 12.4734 4.95686 14.618 6.70552 16.4419C8.12083 17.9621 9.76534 19.2515 11.5794 20.2631C12.7613 20.9591 14.0377 21.4803 15.3689 21.8105C15.6216 21.8632 15.8637 21.9053 16.1163 21.9368L16.4848 22H17.2743H17.5374C18.2648 21.9152 18.9466 21.6019 19.4848 21.1052C20.1281 20.495 20.7394 19.852 21.3165 19.1789C21.7147 18.7216 21.9286 18.1325 21.9165 17.5262C21.9079 16.909 21.6717 16.3168 21.2533 15.863ZM20.2849 18.2631C19.737 18.8956 19.1573 19.4999 18.548 20.0736C18.2113 20.384 17.7826 20.5762 17.3269 20.621H17.2321H17.1585H16.59H16.3269C16.1072 20.5954 15.8893 20.5567 15.6742 20.5052C14.4743 20.21 13.3248 19.7382 12.2636 19.1052C10.5647 18.169 9.02608 16.968 7.70555 15.5472C6.06855 13.8373 4.78126 11.8241 3.91597 9.62069C3.59854 8.85486 3.4203 8.03854 3.38964 7.21009C3.35075 6.85331 3.39767 6.49241 3.52648 6.15743C3.63894 5.83573 3.81833 5.54154 4.05281 5.29425L4.42125 4.91529C4.82126 4.53633 5.16864 4.13632 5.60023 3.78894C5.83403 3.55662 6.14487 3.41805 6.47394 3.39945C6.802 3.41842 7.11058 3.56142 7.33712 3.79947C8.1582 4.57844 8.9898 5.41004 9.86351 6.35744C10.0503 6.55686 10.1522 6.8211 10.1477 7.0943C10.1494 7.36897 10.0436 7.6334 9.85298 7.83116C9.56877 8.15749 9.26349 8.46276 8.95822 8.76803L8.46347 9.25226L7.95819 9.71543L8.22136 10.1891C9.52414 12.5194 11.4579 14.435 13.8005 15.7156L14.2531 15.9577L15.7584 14.4419C15.9616 14.1986 16.2171 14.0042 16.5058 13.8734C16.682 13.8022 16.8749 13.7832 17.0616 13.8186C17.2482 13.8541 17.4207 13.9426 17.5585 14.0735C18.4743 14.9366 19.3691 15.8419 20.2322 16.7577C20.4203 16.9529 20.5259 17.2131 20.527 17.4841C20.5405 17.6235 20.526 17.7642 20.4844 17.898C20.4429 18.0317 20.375 18.1558 20.2849 18.2631Z" fill="white"/>
</svg>
